<mxfile host="app.diagrams.net" modified="2023-06-24T03:39:32.568Z" agent="Mozilla/5.0 (Windows NT 10.0; Win64; x64) AppleWebKit/537.36 (KHTML, like Gecko) Chrome/114.0.0.0 Safari/537.36" etag="Lw-ae8aLnuF-xLQlWQpl" version="21.5.0" type="device">
  <diagram name="PÃ¡gina-1" id="U2NhIT_4wlTlXD6VRpkP">
    <mxGraphModel dx="1707" dy="427" grid="1" gridSize="10" guides="1" tooltips="1" connect="1" arrows="1" fold="1" page="1" pageScale="1" pageWidth="827" pageHeight="1169" math="0" shadow="0">
      <root>
        <mxCell id="0" />
        <mxCell id="1" parent="0" />
        <mxCell id="7m2hUwW0qzy47AlpeMbO-1" value="" style="rounded=0;whiteSpace=wrap;html=1;" vertex="1" parent="1">
          <mxGeometry x="9" y="10" width="810" height="150" as="geometry" />
        </mxCell>
        <mxCell id="7m2hUwW0qzy47AlpeMbO-2" value="" style="ellipse;whiteSpace=wrap;html=1;aspect=fixed;" vertex="1" parent="1">
          <mxGeometry x="30" y="35" width="100" height="100" as="geometry" />
        </mxCell>
        <mxCell id="7m2hUwW0qzy47AlpeMbO-5" value="GENTIZI" style="text;strokeColor=none;fillColor=none;html=1;fontSize=43;fontStyle=1;verticalAlign=middle;align=center;" vertex="1" parent="1">
          <mxGeometry x="244" y="20" width="340" height="70" as="geometry" />
        </mxCell>
        <mxCell id="7m2hUwW0qzy47AlpeMbO-6" value="&lt;font color=&quot;#ff8000&quot; face=&quot;Verdana&quot; style=&quot;font-weight: normal;&quot;&gt;Furnitures&lt;/font&gt;" style="text;strokeColor=none;fillColor=none;html=1;fontSize=24;fontStyle=1;verticalAlign=middle;align=center;" vertex="1" parent="1">
          <mxGeometry x="360" y="70" width="100" height="40" as="geometry" />
        </mxCell>
        <mxCell id="7m2hUwW0qzy47AlpeMbO-10" value="Button" style="labelPosition=center;verticalLabelPosition=middle;align=center;html=1;shape=mxgraph.basic.button;dx=10;whiteSpace=wrap;" vertex="1" parent="1">
          <mxGeometry x="190" y="105" width="60" height="30" as="geometry" />
        </mxCell>
        <mxCell id="7m2hUwW0qzy47AlpeMbO-11" value="Button" style="labelPosition=center;verticalLabelPosition=middle;align=center;html=1;shape=mxgraph.basic.button;dx=10;whiteSpace=wrap;" vertex="1" parent="1">
          <mxGeometry x="380" y="105" width="60" height="30" as="geometry" />
        </mxCell>
        <mxCell id="7m2hUwW0qzy47AlpeMbO-12" value="Button" style="labelPosition=center;verticalLabelPosition=middle;align=center;html=1;shape=mxgraph.basic.button;dx=10;whiteSpace=wrap;" vertex="1" parent="1">
          <mxGeometry x="560" y="105" width="60" height="30" as="geometry" />
        </mxCell>
        <mxCell id="7m2hUwW0qzy47AlpeMbO-17" value="Button" style="labelPosition=center;verticalLabelPosition=middle;align=center;html=1;shape=mxgraph.basic.button;dx=10;whiteSpace=wrap;" vertex="1" parent="1">
          <mxGeometry x="720" y="105" width="60" height="30" as="geometry" />
        </mxCell>
        <mxCell id="7m2hUwW0qzy47AlpeMbO-18" value="" style="verticalLabelPosition=bottom;verticalAlign=top;html=1;shape=mxgraph.basic.rect;fillColor2=none;strokeWidth=1;size=20;indent=5;labelBackgroundColor=#B3B3B3;fillColor=#f5f5f5;strokeColor=#666666;gradientColor=#b3b3b3;" vertex="1" parent="1">
          <mxGeometry x="-10" y="960" width="820" height="190" as="geometry" />
        </mxCell>
        <mxCell id="7m2hUwW0qzy47AlpeMbO-19" value="" style="verticalLabelPosition=bottom;verticalAlign=top;html=1;shape=mxgraph.flowchart.on-page_reference;" vertex="1" parent="1">
          <mxGeometry x="310" y="1010" width="40" height="40" as="geometry" />
        </mxCell>
        <mxCell id="7m2hUwW0qzy47AlpeMbO-20" value="" style="verticalLabelPosition=bottom;verticalAlign=top;html=1;shape=mxgraph.flowchart.on-page_reference;" vertex="1" parent="1">
          <mxGeometry x="420" y="1010" width="40" height="40" as="geometry" />
        </mxCell>
        <mxCell id="7m2hUwW0qzy47AlpeMbO-22" value="" style="line;strokeWidth=1;fillColor=none;align=left;verticalAlign=middle;spacingTop=-1;spacingLeft=3;spacingRight=3;rotatable=0;labelPosition=right;points=[];portConstraint=eastwest;strokeColor=inherit;" vertex="1" parent="1">
          <mxGeometry x="44" y="1100" width="740" height="8" as="geometry" />
        </mxCell>
        <UserObject label="Copyright Gentizi furnitures" placeholders="1" name="Variable" id="7m2hUwW0qzy47AlpeMbO-24">
          <mxCell style="text;html=1;strokeColor=none;fillColor=none;align=center;verticalAlign=middle;whiteSpace=wrap;overflow=hidden;" vertex="1" parent="1">
            <mxGeometry x="130" y="1120" width="530" height="20" as="geometry" />
          </mxCell>
        </UserObject>
        <mxCell id="7m2hUwW0qzy47AlpeMbO-25" value="" style="rounded=0;whiteSpace=wrap;html=1;" vertex="1" parent="1">
          <mxGeometry x="10" y="180" width="810" height="310" as="geometry" />
        </mxCell>
        <mxCell id="7m2hUwW0qzy47AlpeMbO-26" value="ABOUT US&amp;nbsp;" style="text;html=1;strokeColor=none;fillColor=none;align=center;verticalAlign=middle;whiteSpace=wrap;rounded=0;fontSize=50;" vertex="1" parent="1">
          <mxGeometry x="60" y="220" width="300" height="100" as="geometry" />
        </mxCell>
        <mxCell id="7m2hUwW0qzy47AlpeMbO-27" value="Home / About us" style="text;html=1;strokeColor=none;fillColor=none;align=center;verticalAlign=middle;whiteSpace=wrap;rounded=0;fontFamily=Times New Roman;fontSize=17;" vertex="1" parent="1">
          <mxGeometry y="340" width="370" height="40" as="geometry" />
        </mxCell>
        <mxCell id="7m2hUwW0qzy47AlpeMbO-28" value="" style="whiteSpace=wrap;html=1;aspect=fixed;" vertex="1" parent="1">
          <mxGeometry x="370" y="350" width="80" height="80" as="geometry" />
        </mxCell>
        <mxCell id="7m2hUwW0qzy47AlpeMbO-29" value="" style="whiteSpace=wrap;html=1;aspect=fixed;" vertex="1" parent="1">
          <mxGeometry x="10" y="530" width="400" height="400" as="geometry" />
        </mxCell>
        <mxCell id="7m2hUwW0qzy47AlpeMbO-30" value="Image&lt;br&gt;" style="text;html=1;strokeColor=none;fillColor=none;align=center;verticalAlign=middle;whiteSpace=wrap;rounded=0;" vertex="1" parent="1">
          <mxGeometry x="120" y="680" width="190" height="50" as="geometry" />
        </mxCell>
        <mxCell id="7m2hUwW0qzy47AlpeMbO-32" value="&lt;h1 style=&quot;font-size: 27px;&quot;&gt;Heading&lt;/h1&gt;&lt;p style=&quot;font-size: 27px;&quot;&gt;Lorem ipsum dolor sit amet, consectetur adipisicing elit, sed do eiusmod tempor incididunt ut labore et dolore magna aliqua.&lt;/p&gt;" style="text;html=1;strokeColor=none;fillColor=none;spacing=5;spacingTop=-20;whiteSpace=wrap;overflow=hidden;rounded=0;fontSize=27;" vertex="1" parent="1">
          <mxGeometry x="430" y="585" width="380" height="250" as="geometry" />
        </mxCell>
      </root>
    </mxGraphModel>
  </diagram>
</mxfile>
